# Blender v2.79 (sub 0) OBJ File: ''
# www.blender.org
mtllib magmaticstone.mtl
o Cube.002_Cube.007
v 0.070000 0.070000 0.930000
v 0.070000 0.930000 0.930000
v 0.070000 0.070000 0.070000
v 0.070000 0.930000 0.070000
v 0.930000 0.070000 0.930000
v 0.930000 0.930000 0.930000
v 0.930000 0.070000 0.070000
v 0.930000 0.930000 0.070000
vn -1.0000 0.0000 0.0000
vn 0.0000 0.0000 -1.0000
vn 1.0000 0.0000 0.0000
vn 0.0000 0.0000 1.0000
vn 0.0000 -1.0000 0.0000
vn 0.0000 1.0000 0.0000
usemtl Magma
s off
f 2//1 3//1 1//1
f 4//2 7//2 3//2
f 8//3 5//3 7//3
f 6//4 1//4 5//4
f 7//5 1//5 3//5
f 4//6 6//6 8//6
f 2//1 4//1 3//1
f 4//2 8//2 7//2
f 8//3 6//3 5//3
f 6//4 2//4 1//4
f 7//5 5//5 1//5
f 4//6 2//6 6//6
o Cube_Cube.005
v 0.642952 0.477305 0.076852
v 0.642952 0.522695 0.076852
v 0.933101 0.477305 0.076852
v 0.933101 0.522695 0.076852
v 0.596717 0.477305 0.076852
v 0.596717 0.522695 0.076852
v 0.642952 0.594536 0.076852
v 0.596717 0.594536 0.076852
v 0.642952 0.640434 0.076852
v 0.596717 0.640434 0.076852
v 0.056257 0.594536 0.076852
v 0.056257 0.640434 0.076852
v 0.933101 0.522695 0.579442
v 0.933101 0.477305 0.579442
v 0.936460 0.522695 0.631724
v 0.933101 0.477305 0.631724
v 0.933101 0.642859 0.579442
v 0.935657 0.642859 0.631724
v 0.933101 0.696726 0.579442
v 0.935657 0.696726 0.631724
v 0.940346 0.642859 0.917961
v 0.940346 0.696726 0.917961
v 0.538400 0.642859 0.917961
v 0.538400 0.696726 0.917961
v 0.481917 0.642859 0.917961
v 0.481917 0.696726 0.917961
v 0.538400 0.529184 0.917961
v 0.481917 0.529184 0.917961
v 0.538400 0.471383 0.917961
v 0.481917 0.471383 0.917961
v 0.114426 0.529184 0.917961
v 0.114426 0.471383 0.917961
v 0.059382 0.529184 0.917961
v 0.059382 0.471383 0.917961
v 0.114426 0.653573 0.917961
v 0.059382 0.653573 0.917961
v 0.114426 0.714780 0.917961
v 0.059382 0.714780 0.917961
v 0.055189 0.653573 0.917961
v 0.055189 0.714780 0.917961
v 0.055189 0.714780 0.448209
v 0.055189 0.653573 0.448209
v 0.056257 0.640434 0.332838
v 0.056257 0.594536 0.332838
v 0.056257 0.640434 0.386300
v 0.056257 0.594536 0.386300
v 0.056257 0.653466 0.332838
v 0.056257 0.653466 0.386300
v 0.056257 0.714415 0.332838
v 0.056257 0.714415 0.386300
v 0.056257 0.653466 0.438438
v 0.056257 0.714415 0.438438
v 0.000000 0.000000 1.000000
v 0.000000 1.000000 1.000000
v 0.000000 0.000000 0.000000
v 0.000000 1.000000 0.000000
v 1.000000 0.000000 1.000000
v 1.000000 1.000000 1.000000
v 1.000000 0.000000 0.000000
v 1.000000 1.000000 0.000000
v 1.000000 0.696726 1.000000
v 1.000000 0.642859 0.917961
v 0.951713 0.642859 1.000000
v 1.000000 0.696726 0.917961
v 0.951713 0.696726 1.000000
v 1.000000 0.642859 1.000000
v 0.538400 0.696726 1.000000
v 0.538400 0.642859 1.000000
v 0.481917 0.696726 1.000000
v 0.538400 0.529184 1.000000
v 0.538400 0.471383 1.000000
v 0.481917 0.471383 1.000000
v 0.114426 0.471383 1.000000
v 0.481917 0.642859 1.000000
v 0.114426 0.529184 1.000000
v 0.481917 0.529184 1.000000
v 0.059382 0.471383 1.000000
v 0.114426 0.653573 1.000000
v 0.059382 0.529184 1.000000
v 0.000000 0.653573 1.000000
v 0.059382 0.653573 1.000000
v 0.000000 0.653573 0.917961
v 0.055189 0.653573 1.000000
v 1.000000 0.642859 0.579442
v 1.000000 0.696726 0.579442
v 1.000000 0.696726 0.631724
v 1.000000 0.522695 0.579442
v 1.000000 0.642859 0.631724
v 1.000000 0.522695 0.631724
v 1.000000 0.477305 0.631724
v 1.000000 0.477305 0.579442
v 0.114426 0.714780 1.000000
v 0.059382 0.714780 1.000000
v 0.000000 0.653573 0.448209
v 0.000000 0.714780 0.448209
v 0.000000 0.714780 0.917961
v 0.055189 0.714780 1.000000
v 0.000000 0.714780 1.000000
v 0.933101 0.477305 0.000000
v 1.000000 0.477305 0.000000
v 1.000000 0.477305 0.076852
v 1.000000 0.522695 0.076852
v 0.933101 0.522695 0.000000
v 0.000000 0.594536 0.076852
v 0.000000 0.714415 0.332838
v 0.000000 0.653466 0.332838
v 0.000000 0.714415 0.386300
v 0.000000 0.653466 0.386300
v 0.000000 0.640434 0.386300
v 0.000000 0.640434 0.332838
v 0.000000 0.594536 0.332838
v 0.000000 0.640434 0.076852
v 0.000000 0.714415 0.438438
v 0.000000 0.653466 0.438438
v 0.000000 0.594536 0.386300
v 0.596717 0.477305 0.000000
v 0.642952 0.477305 0.000000
v 0.056257 0.640434 0.000000
v 0.596717 0.594536 0.000000
v 0.056257 0.594536 0.000000
v 0.596717 0.640434 0.000000
v 0.596717 0.522695 0.000000
v 1.000000 0.522695 0.000000
v 0.642952 0.594536 0.000000
v 0.642952 0.640434 0.000000
v 0.642952 0.522695 0.000000
v 0.000000 0.594536 0.000000
v 0.000000 0.640434 0.000000
vt 1.000000 0.000000
vt 0.000000 1.000000
vt 0.000000 0.000000
vt 1.000000 0.000000
vt 0.000000 1.000000
vt 0.000000 0.000000
vt 1.000000 0.000000
vt 0.000000 1.000000
vt 0.000000 0.000000
vt 1.000000 0.000000
vt 0.000000 0.000000
vt 1.000000 0.000000
vt 0.000000 1.000000
vt 0.000000 0.000000
vt 1.000000 0.000000
vt 0.000000 1.000000
vt 0.000000 0.000000
vt 1.000000 0.000000
vt 0.000000 1.000000
vt 0.000000 0.000000
vt 0.000000 1.000000
vt 0.000000 0.000000
vt 1.000000 0.000000
vt 0.000000 1.000000
vt 1.000000 0.000000
vt 0.000000 1.000000
vt 0.000000 0.000000
vt 1.000000 0.000000
vt 0.000000 1.000000
vt 0.000000 0.000000
vt 1.000000 0.000000
vt 0.000000 1.000000
vt 1.000000 0.000000
vt 0.000000 1.000000
vt 1.000000 0.000000
vt 0.000000 1.000000
vt 0.000000 0.000000
vt 0.000000 0.000000
vt 1.000000 1.000000
vt 0.000000 1.000000
vt 1.000000 0.000000
vt 0.000000 1.000000
vt 0.000000 0.000000
vt 0.000000 0.000000
vt 1.000000 1.000000
vt 0.000000 1.000000
vt 0.000000 0.000000
vt 1.000000 1.000000
vt 0.000000 1.000000
vt 1.000000 1.000000
vt 0.000000 1.000000
vt 1.000000 1.000000
vt 0.000000 1.000000
vt 1.000000 0.000000
vt 0.000000 1.000000
vt 0.000000 0.000000
vt 1.000000 0.000000
vt 0.000000 0.000000
vt 1.000000 0.000000
vt 0.000000 1.000000
vt 0.000000 0.000000
vt 1.000000 0.000000
vt 0.000000 1.000000
vt 0.000000 0.000000
vt 1.000000 1.000000
vt 0.000000 1.000000
vt 1.000000 0.000000
vt 0.000000 1.000000
vt 0.000000 0.000000
vt 1.000000 0.000000
vt 0.000000 1.000000
vt 0.000000 0.000000
vt 1.000000 0.000000
vt 0.000000 1.000000
vt 0.000000 0.000000
vt 1.000000 0.000000
vt 0.000000 0.000000
vt 1.000000 0.000000
vt 0.000000 1.000000
vt 0.000000 0.000000
vt 1.000000 0.000000
vt 0.000000 1.000000
vt 0.000000 0.000000
vt 0.000000 1.000000
vt 0.000000 0.000000
vt 1.000000 0.000000
vt 0.000000 1.000000
vt 0.000000 0.000000
vt 1.000000 0.000000
vt 0.000000 1.000000
vt 0.000000 0.000000
vt 1.000000 0.000000
vt 0.000000 1.000000
vt 1.000000 0.000000
vt 0.000000 1.000000
vt 1.000000 0.000000
vt 0.000000 1.000000
vt 0.000000 0.000000
vt 1.000000 0.000000
vt 0.000000 1.000000
vt 0.000000 0.000000
vt 1.000000 0.000000
vt 0.000000 1.000000
vt 0.000000 0.000000
vt 1.000000 0.000000
vt 0.000000 1.000000
vt 0.000000 0.000000
vt 1.000000 0.000000
vt 0.000000 1.000000
vt 0.000000 0.000000
vt 1.000000 0.000000
vt 0.000000 0.000000
vt 1.000000 0.000000
vt 0.000000 1.000000
vt 0.000000 0.000000
vt 1.000000 0.000000
vt 0.000000 1.000000
vt 0.000000 0.000000
vt 1.000000 0.000000
vt 0.000000 1.000000
vt 1.000000 0.000000
vt 0.000000 1.000000
vt 0.000000 0.000000
vt 1.000000 0.000000
vt 0.000000 1.000000
vt 0.000000 0.000000
vt 1.000000 0.000000
vt 0.000000 1.000000
vt 1.000000 0.000000
vt 0.000000 1.000000
vt 0.000000 0.000000
vt 1.000000 0.000000
vt 0.000000 1.000000
vt 0.000000 0.000000
vt 1.000000 0.000000
vt 0.000000 1.000000
vt 0.000000 0.000000
vt 1.000000 0.000000
vt 0.000000 0.000000
vt 0.000000 1.000000
vt 0.000000 0.000000
vt 1.000000 0.000000
vt 0.000000 1.000000
vt 0.000000 0.000000
vt 1.000000 0.000000
vt 0.000000 1.000000
vt 0.000000 1.000000
vt 0.000000 0.000000
vt 1.000000 0.000000
vt 0.000000 1.000000
vt 0.000000 0.000000
vt 0.975528 0.654508
vt 0.793893 0.095491
vt 0.500000 0.000000
vt 0.793893 0.095491
vt 0.024472 0.345491
vt 0.206108 0.904509
vt 0.890916 0.188255
vt 0.716942 0.049516
vt 0.500000 1.000000
vt 1.000000 0.000000
vt 0.000000 1.000000
vt 0.000000 0.000000
vt 1.000000 0.000000
vt 0.000000 1.000000
vt 0.000000 0.000000
vt 0.000000 1.000000
vt 1.000000 0.000000
vt 0.000000 0.000000
vt 0.000000 1.000000
vt 0.000000 0.000000
vt 0.000000 1.000000
vt 0.000000 0.000000
vt 0.206107 0.095492
vt 0.024472 0.345491
vt 0.024472 0.654509
vt 0.000000 0.000000
vt 1.000000 1.000000
vt 0.000000 1.000000
vt 0.000000 1.000000
vt 0.000000 0.000000
vt 0.000000 1.000000
vt 0.000000 0.000000
vt 0.000000 1.000000
vt 0.000000 0.000000
vt 0.000000 0.000000
vt 1.000000 1.000000
vt 0.000000 1.000000
vt 0.000000 1.000000
vt 0.000000 0.000000
vt 0.000000 1.000000
vt 0.000000 0.000000
vt 1.000000 0.000000
vt 0.000000 1.000000
vt 0.000000 0.000000
vt 0.000000 0.000000
vt 0.000000 1.000000
vt 0.000000 0.000000
vt 0.000000 1.000000
vt 0.000000 0.000000
vt 0.000000 0.000000
vt 1.000000 1.000000
vt 0.000000 1.000000
vt 0.000000 1.000000
vt 0.000000 0.000000
vt 0.000000 1.000000
vt 0.000000 0.000000
vt 0.000000 1.000000
vt 0.000000 0.000000
vt 0.000000 1.000000
vt 0.000000 0.000000
vt 0.000000 1.000000
vt 0.000000 0.000000
vt 0.000000 1.000000
vt 0.000000 0.000000
vt 0.000000 0.000000
vt 0.975528 0.345491
vt 0.206107 0.095492
vt 0.024472 0.654509
vt 0.000000 1.000000
vt 0.000000 0.000000
vt 1.000000 0.000000
vt 0.000000 1.000000
vt 0.000000 0.000000
vt 0.000000 1.000000
vt 0.000000 0.000000
vt 1.000000 0.000000
vt 0.000000 1.000000
vt 0.000000 0.000000
vt 1.000000 0.000000
vt 0.000000 1.000000
vt 0.000000 0.000000
vt 0.000000 1.000000
vt 0.000000 0.000000
vt 0.987464 0.388739
vt 0.500000 0.000000
vt 0.283058 0.049516
vt 0.750000 0.933013
vt 1.000000 0.500000
vt 0.066987 0.250000
vt 0.750000 0.933013
vt 1.000000 0.500000
vt 0.500000 0.000000
vt 1.000000 1.000000
vt 1.000000 1.000000
vt 1.000000 1.000000
vt 1.000000 1.000000
vt 1.000000 1.000000
vt 1.000000 1.000000
vt 1.000000 1.000000
vt 1.000000 1.000000
vt 1.000000 1.000000
vt 1.000000 1.000000
vt 1.000000 1.000000
vt 1.000000 1.000000
vt 1.000000 1.000000
vt 1.000000 1.000000
vt 1.000000 0.000000
vt 1.000000 0.000000
vt 1.000000 0.000000
vt 1.000000 1.000000
vt 1.000000 1.000000
vt 1.000000 1.000000
vt 1.000000 1.000000
vt 1.000000 0.000000
vt 1.000000 1.000000
vt 1.000000 1.000000
vt 1.000000 1.000000
vt 1.000000 1.000000
vt 1.000000 1.000000
vt 1.000000 1.000000
vt 1.000000 1.000000
vt 1.000000 1.000000
vt 1.000000 1.000000
vt 1.000000 1.000000
vt 1.000000 1.000000
vt 1.000000 1.000000
vt 1.000000 1.000000
vt 1.000000 1.000000
vt 1.000000 1.000000
vt 1.000000 1.000000
vt 1.000000 1.000000
vt 1.000000 1.000000
vt 1.000000 1.000000
vt 1.000000 1.000000
vt 1.000000 1.000000
vt 1.000000 1.000000
vt 1.000000 1.000000
vt 1.000000 1.000000
vt 1.000000 1.000000
vt 1.000000 1.000000
vt 1.000000 1.000000
vt 1.000000 1.000000
vt 1.000000 1.000000
vt 1.000000 1.000000
vt 1.000000 1.000000
vt 0.206108 0.904509
vt 0.500000 1.000000
vt 0.793893 0.904508
vt 0.975528 0.345491
vt 0.024472 0.345491
vt 0.024472 0.654509
vt 0.206107 0.095492
vt 0.500000 1.000000
vt 0.975528 0.345491
vt 0.793893 0.904508
vt 0.975528 0.654508
vt 0.024472 0.654509
vt 0.500000 0.000000
vt 0.206107 0.095492
vt 0.283059 0.950485
vt 0.716942 0.950484
vt 0.890916 0.811745
vt 0.987464 0.611260
vt 0.987464 0.388739
vt 0.012536 0.611261
vt 0.109084 0.811745
vt 0.109084 0.188255
vt 0.283058 0.049516
vt 0.012536 0.388740
vt 0.500000 0.000000
vt 1.000000 1.000000
vt 1.000000 1.000000
vt 1.000000 1.000000
vt 1.000000 1.000000
vt 1.000000 1.000000
vt 0.206108 0.904509
vt 0.500000 1.000000
vt 0.793893 0.904508
vt 0.975528 0.654508
vt 0.975528 0.345491
vt 0.793893 0.095491
vt 0.500000 0.000000
vt 1.000000 1.000000
vt 1.000000 1.000000
vt 1.000000 1.000000
vt 1.000000 1.000000
vt 1.000000 1.000000
vt 1.000000 1.000000
vt 1.000000 1.000000
vt 1.000000 1.000000
vt 1.000000 1.000000
vt 1.000000 1.000000
vt 1.000000 1.000000
vt 1.000000 1.000000
vt 0.206108 0.904509
vt 0.500000 1.000000
vt 0.793893 0.904508
vt 0.975528 0.654508
vt 0.024472 0.345491
vt 0.793893 0.095491
vt 0.500000 0.000000
vt 1.000000 1.000000
vt 1.000000 1.000000
vt 1.000000 1.000000
vt 1.000000 1.000000
vt 1.000000 1.000000
vt 0.283059 0.950485
vt 0.500000 1.000000
vt 0.716942 0.950484
vt 0.890916 0.811745
vt 0.987464 0.611260
vt 0.109084 0.811745
vt 0.012536 0.388740
vt 0.012536 0.611261
vt 0.109084 0.188255
vt 0.890916 0.188255
vt 0.716942 0.049516
vt 0.250000 0.933013
vt 0.066987 0.750000
vt 0.000000 0.500000
vt 0.933013 0.750000
vt 0.933013 0.250000
vt 0.750000 0.066987
vt 0.500000 0.000000
vt 0.250000 0.066987
vt 0.250000 0.933013
vt 0.500000 1.000000
vt 0.066987 0.750000
vt 0.000000 0.500000
vt 0.933013 0.750000
vt 0.933013 0.250000
vt 0.750000 0.066987
vt 0.250000 0.066987
vt 0.066987 0.250000
vn 0.0000 0.0000 -1.0000
vn 1.0000 0.0000 0.0000
vn -1.0000 0.0000 0.0000
vn 0.0000 -1.0000 0.0000
vn 0.0000 1.0000 0.0000
vn 0.9988 0.0000 -0.0488
vn 0.9979 0.0067 -0.0641
vn 0.9999 0.0000 -0.0164
vn 0.0000 0.0000 1.0000
vn -0.9941 0.0000 -0.1086
vn 0.0000 -0.9993 0.0374
vn 0.0000 0.9999 -0.0110
vn 0.9952 -0.0737 -0.0640
usemtl Material.002
s off
f 16/1/7 10/2/7 14/3/7
f 9/4/7 12/5/7 11/6/7
f 124/7/8 14/8/8 13/9/8
f 13/10/7 10/2/7 9/11/7
f 15/12/9 134/13/9 10/14/9
f 18/15/10 133/16/10 17/17/10
f 17/18/9 132/19/9 15/20/9
f 18/15/7 15/21/7 16/22/7
f 19/23/7 18/24/7 16/22/7
f 52/25/9 20/26/9 19/27/9
f 20/28/10 129/29/10 18/30/10
f 22/31/11 109/32/11 11/6/11
f 109/33/11 107/34/11 11/6/11
f 21/35/8 11/36/8 12/37/8
f 23/38/7 98/39/7 24/40/7
f 24/41/11 99/42/11 22/43/11
f 21/44/8 24/45/8 22/46/8
f 25/47/12 28/48/12 26/49/12
f 21/44/13 26/50/13 23/51/13
f 23/38/7 96/52/7 97/53/7
f 29/54/11 96/55/11 26/56/11
f 30/57/14 26/49/14 28/58/14
f 71/59/11 70/60/11 29/61/11
f 32/62/15 29/63/15 30/64/15
f 29/61/11 76/65/11 71/66/11
f 77/67/8 33/68/8 34/69/8
f 34/70/15 31/71/15 32/72/15
f 37/73/9 78/74/9 35/75/9
f 36/76/15 31/71/15 33/77/15
f 35/78/9 76/79/9 31/80/9
f 38/81/11 79/82/11 37/83/11
f 38/81/15 35/84/15 36/85/15
f 40/86/11 80/87/11 38/88/11
f 41/89/15 40/90/15 39/91/15
f 39/92/15 38/93/15 36/85/15
f 43/94/15 41/95/15 39/91/15
f 42/96/11 81/97/11 40/98/11
f 47/99/11 89/100/11 44/101/11
f 44/102/8 87/103/8 41/104/8
f 45/105/15 44/106/15 43/107/15
f 49/108/9 47/109/9 48/110/9
f 48/111/15 44/106/15 46/112/15
f 90/113/11 91/114/11 47/115/11
f 60/116/16 50/117/16 49/118/16
f 50/119/11 90/120/11 47/115/11
f 120/121/10 126/122/10 20/123/10
f 55/124/15 118/125/15 51/126/15
f 51/127/10 120/128/10 20/123/10
f 123/129/7 53/130/7 54/131/7
f 54/132/9 51/133/9 52/134/9
f 58/135/9 55/136/9 56/137/9
f 56/138/9 51/133/9 53/139/9
f 58/135/10 113/140/10 57/141/10
f 57/142/15 114/143/15 55/144/15
f 59/145/9 58/146/9 56/137/9
f 60/116/10 115/147/10 58/148/10
f 121/149/17 49/150/17 103/151/17
f 128/152/7 130/153/7 124/154/7
f 98/155/8 70/156/8 65/157/8
f 79/158/15 80/159/15 65/160/15
f 67/161/10 61/162/10 63/163/10
f 64/164/11 66/165/11 68/166/11
f 49/108/10 104/167/10 103/151/10
f 12/168/10 134/13/10 111/169/10
f 21/35/10 110/170/10 95/171/10
f 13/10/11 125/172/11 124/173/11
f 126/174/7 136/175/7 64/176/7
f 50/177/18 122/178/18 102/179/18
f 36/76/8 82/180/8 84/181/8
f 43/94/9 83/182/9 86/183/9
f 48/111/10 101/184/10 105/185/10
f 75/186/10 30/187/10 73/188/10
f 19/23/11 127/189/11 128/190/11
f 52/25/11 112/191/11 119/192/11
f 46/193/10 100/194/10 101/195/10
f 42/96/8 87/103/8 85/196/8
f 59/145/11 116/197/11 122/198/11
f 48/111/10 106/199/10 104/200/10
f 73/201/10 72/202/10 69/203/10
f 54/132/11 119/204/11 123/205/11
f 30/57/10 94/206/10 72/207/10
f 12/168/10 131/208/10 110/209/10
f 56/138/7 117/210/7 116/211/7
f 39/92/10 84/212/10 83/213/10
f 19/23/11 135/214/11 112/215/11
f 9/4/11 107/34/11 125/216/11
f 93/217/8 110/218/8 68/219/8
f 16/1/8 130/220/8 127/221/8
f 25/222/15 95/223/15 92/224/15
f 34/70/10 75/225/10 77/226/10
f 28/227/10 93/228/10 94/229/10
f 27/230/15 92/231/15 93/232/15
f 45/105/9 86/233/9 100/234/9
f 86/235/15 82/236/15 77/237/15
f 61/238/9 90/239/9 123/240/9
f 64/241/9 120/242/9 113/243/9
f 16/1/7 15/244/7 10/2/7
f 9/4/7 10/245/7 12/5/7
f 124/7/8 130/246/8 14/8/8
f 13/10/7 14/247/7 10/2/7
f 15/12/9 132/248/9 134/13/9
f 18/15/10 129/249/10 133/16/10
f 17/18/9 133/250/9 132/19/9
f 18/15/7 17/251/7 15/21/7
f 19/23/7 20/252/7 18/24/7
f 52/25/9 51/253/9 20/26/9
f 20/28/10 126/254/10 129/29/10
f 22/31/11 99/255/11 109/32/11
f 109/33/11 108/256/11 107/34/11
f 21/35/8 22/257/8 11/36/8
f 23/38/7 97/258/7 98/39/7
f 24/41/11 98/39/11 99/42/11
f 21/44/19 23/259/19 24/45/19
f 25/47/12 27/230/12 28/48/12
f 21/44/12 25/222/12 26/50/12
f 23/38/7 26/260/7 96/52/7
f 29/54/11 70/261/11 96/55/11
f 30/57/14 29/262/14 26/49/14
f 71/59/11 74/263/11 70/60/11
f 32/62/15 31/264/15 29/63/15
f 29/61/11 31/265/11 76/65/11
f 77/67/8 82/266/8 33/68/8
f 34/70/15 33/267/15 31/71/15
f 37/73/9 79/268/9 78/74/9
f 36/76/15 35/269/15 31/71/15
f 35/78/9 78/270/9 76/79/9
f 38/81/11 80/271/11 79/82/11
f 38/81/15 37/272/15 35/84/15
f 40/86/11 81/273/11 80/87/11
f 41/89/15 42/274/15 40/90/15
f 39/92/15 40/275/15 38/93/15
f 43/94/15 44/276/15 41/95/15
f 42/96/11 85/277/11 81/97/11
f 47/99/11 91/278/11 89/100/11
f 44/102/8 89/279/8 87/103/8
f 45/105/15 46/280/15 44/106/15
f 49/108/9 50/281/9 47/109/9
f 48/111/15 47/282/15 44/106/15
f 90/113/11 88/283/11 91/114/11
f 60/116/16 59/284/16 50/117/16
f 50/119/11 102/285/11 90/120/11
f 120/121/10 136/286/10 126/122/10
f 55/124/15 114/287/15 118/125/15
f 51/127/10 118/288/10 120/128/10
f 123/129/7 117/289/7 53/130/7
f 54/132/9 53/290/9 51/133/9
f 58/135/9 57/291/9 55/136/9
f 56/138/9 55/292/9 51/133/9
f 58/135/10 115/293/10 113/140/10
f 57/142/15 113/294/15 114/143/15
f 59/145/9 60/295/9 58/146/9
f 60/116/10 121/296/10 115/147/10
f 121/149/17 60/295/17 49/150/17
f 67/297/7 63/298/7 124/154/7
f 63/298/7 135/299/7 128/152/7
f 128/152/7 127/300/7 130/153/7
f 63/298/7 128/152/7 124/154/7
f 107/301/7 108/302/7 67/297/7
f 124/154/7 125/303/7 67/297/7
f 125/303/7 107/301/7 67/297/7
f 65/157/8 67/304/8 99/305/8
f 67/304/8 108/306/8 109/307/8
f 109/307/8 99/305/8 67/304/8
f 99/305/8 98/155/8 65/157/8
f 70/156/8 74/308/8 65/157/8
f 97/309/8 96/310/8 70/156/8
f 98/155/8 97/309/8 70/156/8
f 61/311/15 65/160/15 80/159/15
f 65/160/15 74/312/15 71/313/15
f 71/313/15 76/314/15 78/315/15
f 65/160/15 71/313/15 79/158/15
f 91/316/15 88/317/15 87/318/15
f 88/317/15 61/311/15 85/319/15
f 87/318/15 89/320/15 91/316/15
f 80/159/15 81/321/15 61/311/15
f 81/321/15 85/319/15 61/311/15
f 85/319/15 87/318/15 88/317/15
f 71/313/15 78/315/15 79/158/15
f 67/161/10 65/322/10 61/162/10
f 64/164/11 62/323/11 66/165/11
f 49/108/10 48/324/10 104/167/10
f 12/168/10 10/245/10 134/13/10
f 21/35/10 12/325/10 110/170/10
f 13/10/11 9/326/11 125/172/11
f 68/327/7 131/328/7 111/329/7
f 111/329/7 134/330/7 132/331/7
f 133/332/7 129/333/7 68/327/7
f 129/333/7 126/174/7 64/176/7
f 111/329/7 132/331/7 133/332/7
f 64/176/7 68/327/7 129/333/7
f 68/327/7 111/329/7 133/332/7
f 50/177/18 59/145/18 122/178/18
f 36/76/8 33/267/8 82/180/8
f 43/94/9 39/334/9 83/182/9
f 48/111/10 46/280/10 101/184/10
f 75/186/10 32/62/10 30/187/10
f 19/23/11 16/335/11 127/189/11
f 52/25/11 19/336/11 112/191/11
f 46/193/10 45/337/10 100/194/10
f 42/96/8 41/338/8 87/103/8
f 59/145/11 56/339/11 116/197/11
f 48/111/10 105/340/10 106/199/10
f 73/201/10 30/57/10 72/202/10
f 54/132/11 52/341/11 119/204/11
f 30/57/10 28/48/10 94/206/10
f 12/168/10 111/342/10 131/208/10
f 56/138/7 53/290/7 117/210/7
f 39/92/10 36/343/10 84/212/10
f 19/23/11 128/344/11 135/214/11
f 9/4/11 11/345/11 107/34/11
f 66/346/8 69/347/8 72/348/8
f 72/348/8 94/349/8 66/346/8
f 94/349/8 93/217/8 66/346/8
f 66/346/8 93/217/8 68/219/8
f 110/218/8 131/350/8 68/219/8
f 92/351/8 95/352/8 110/218/8
f 93/217/8 92/351/8 110/218/8
f 16/1/8 14/247/8 130/220/8
f 25/222/15 21/353/15 95/223/15
f 34/70/10 32/354/10 75/225/10
f 28/227/10 27/355/10 93/228/10
f 27/230/15 25/356/15 92/231/15
f 45/105/9 43/357/9 86/233/9
f 62/358/15 106/359/15 105/360/15
f 105/360/15 101/361/15 62/358/15
f 101/361/15 100/362/15 62/358/15
f 62/358/15 100/362/15 77/237/15
f 66/363/15 62/358/15 77/237/15
f 73/364/15 69/365/15 66/363/15
f 77/237/15 75/366/15 66/363/15
f 75/366/15 73/364/15 66/363/15
f 86/235/15 83/367/15 82/236/15
f 83/367/15 84/368/15 82/236/15
f 100/362/15 86/235/15 77/237/15
f 135/369/9 63/298/9 112/370/9
f 63/298/9 61/238/9 123/240/9
f 112/370/9 63/298/9 119/371/9
f 61/238/9 88/372/9 90/239/9
f 90/239/9 102/373/9 123/240/9
f 102/373/9 122/374/9 123/240/9
f 122/374/9 116/375/9 117/376/9
f 123/240/9 119/371/9 63/298/9
f 122/374/9 117/376/9 123/240/9
f 106/377/9 62/378/9 104/379/9
f 62/378/9 64/241/9 103/380/9
f 104/379/9 62/378/9 103/380/9
f 64/241/9 136/381/9 120/242/9
f 120/242/9 118/382/9 114/383/9
f 113/243/9 115/384/9 64/241/9
f 115/384/9 121/385/9 64/241/9
f 64/241/9 121/385/9 103/380/9
f 120/242/9 114/383/9 113/243/9
